HIERARCHY
ROOT Hips
{
	OFFSET 0.000000 0.000000 0.000000
	CHANNELS 6 Xposition Yposition Zposition Zrotation Yrotation Xrotation 
	JOINT LHipJoint
	{
		OFFSET 0.000000 0.000000 0.000000
		CHANNELS 3 Zrotation Yrotation Xrotation
		JOINT LeftUpLeg
		{
			OFFSET 1.363060 -1.794630 0.839290
			CHANNELS 3 Zrotation Yrotation Xrotation
			JOINT LeftLeg
			{
				OFFSET 2.448110 -6.726130 0.000000
				CHANNELS 3 Zrotation Yrotation Xrotation
				JOINT LeftFoot
				{
					OFFSET 2.562200 -7.039590 0.000000
					CHANNELS 3 Zrotation Yrotation Xrotation
					JOINT LeftToeBase
					{
						OFFSET 0.157640 -0.433110 2.322550
						CHANNELS 3 Zrotation Yrotation Xrotation
						End Site
						{
							OFFSET 0.000000 0.000000 0.000000
						}
					}
				}
			}
		}
	}
	JOINT RHipJoint
	{
		OFFSET 0.000000 0.000000 0.000000
		CHANNELS 3 Zrotation Yrotation Xrotation
		JOINT RightUpLeg
		{
			OFFSET -1.305520 -1.794630 0.839290
			CHANNELS 3 Zrotation Yrotation Xrotation
			JOINT RightLeg
			{
				OFFSET -2.542530 -6.985550 0.000000
				CHANNELS 3 Zrotation Yrotation Xrotation
				JOINT RightFoot
				{
					OFFSET -2.568260 -7.056230 0.000000
					CHANNELS 3 Zrotation Yrotation Xrotation
					JOINT RightToeBase
					{
						OFFSET -0.164730 -0.452590 2.363150
						CHANNELS 3 Zrotation Yrotation Xrotation
						End Site
						{
							OFFSET 0.000000 0.000000 0.000000
						}
					}
				}
			}
		}
	}
	JOINT LowerBack
	{
		OFFSET 0.000000 0.000000 0.000000
		CHANNELS 3 Zrotation Yrotation Xrotation
		JOINT Spine
		{
			OFFSET 0.028270 2.035590 -0.193380
			CHANNELS 3 Zrotation Yrotation Xrotation
			JOINT Spine1
			{
				OFFSET 0.056720 2.048850 -0.042750
				CHANNELS 3 Zrotation Yrotation Xrotation
				JOINT Neck
				{
					OFFSET 0.000000 0.000000 0.000000
					CHANNELS 3 Zrotation Yrotation Xrotation
					JOINT Neck1
					{
						OFFSET -0.054170 1.746240 0.172020
						CHANNELS 3 Zrotation Yrotation Xrotation
						JOINT Head
						{
							OFFSET 0.104070 1.761360 -0.123970
							CHANNELS 3 Zrotation Yrotation Xrotation
							End Site
							{
								OFFSET 0.000000 0.000000 0.000000
							}
						}
					}
				}
				JOINT LeftShoulder
				{
					OFFSET 0.000000 0.000000 0.000000
					CHANNELS 3 Zrotation Yrotation Xrotation
					JOINT LeftArm
					{
						OFFSET 3.362410 1.200890 -0.311210
						CHANNELS 3 Zrotation Yrotation Xrotation
						JOINT LeftForeArm
						{
							OFFSET 4.983000 -0.000000 -0.000000
							CHANNELS 3 Zrotation Yrotation Xrotation
							JOINT LeftHand
							{
								OFFSET 3.483560 -0.000000 -0.000000
								CHANNELS 3 Zrotation Yrotation Xrotation
								JOINT LeftFingerBase
								{
									OFFSET 0.000000 0.000000 0.000000
									CHANNELS 3 Zrotation Yrotation Xrotation
									JOINT LeftHandIndex1
									{
										OFFSET 0.715260 -0.000000 -0.000000
										CHANNELS 3 Zrotation Yrotation Xrotation
										End Site
										{
											OFFSET 0.000000 0.000000 0.000000
										}
									}
								}
								JOINT LThumb
								{
									OFFSET 0.000000 0.000000 0.000000
									CHANNELS 3 Zrotation Yrotation Xrotation
									End Site
									{
										OFFSET 0.000000 0.000000 0.000000
									}
								}
							}
						}
					}
				}
				JOINT RightShoulder
				{
					OFFSET 0.000000 0.000000 0.000000
					CHANNELS 3 Zrotation Yrotation Xrotation
					JOINT RightArm
					{
						OFFSET -3.136600 1.374050 -0.404650
						CHANNELS 3 Zrotation Yrotation Xrotation
						JOINT RightForeArm
						{
							OFFSET -5.241900 -0.000000 -0.000000
							CHANNELS 3 Zrotation Yrotation Xrotation
							JOINT RightHand
							{
								OFFSET -3.444170 -0.000000 -0.000000
								CHANNELS 3 Zrotation Yrotation Xrotation
								JOINT RightFingerBase
								{
									OFFSET 0.000000 0.000000 0.000000
									CHANNELS 3 Zrotation Yrotation Xrotation
									JOINT RightHandIndex1
									{
										OFFSET -0.622530 -0.000000 -0.000000
										CHANNELS 3 Zrotation Yrotation Xrotation
										End Site
										{
											OFFSET 0.000000 0.000000 0.000000
										}
									}
								}
								JOINT RThumb
								{
									OFFSET 0.000000 0.000000 0.000000
									CHANNELS 3 Zrotation Yrotation Xrotation
									End Site
									{
										OFFSET 0.000000 0.000000 0.000000
									}
								}
							}
						}
					}
				}
			}
		}
	}
}
MOTION
Frames: 12
Frame Time: 0.008333
31.598053 17.372640 -31.815918 -3.465558 -49.791777 18.388003 -3.893896 -5.978403 -4.888611 -13.916667 8.946988 -51.458260 6.341769 15.377975 45.834804 -3.846756 11.757721 6.715697 0.056600 -1.535200 -4.222700 5.214218 5.229090 -4.066296 7.219867 10.673976 -41.650596 -7.396754 -16.686929 50.779070 2.948153 -10.010802 -4.354287 -0.396500 4.043200 -11.198100 5.512858 -3.713770 43.894294 1.219846 -4.818882 -1.369023 -9.083155 -2.299254 2.008126 4.661062 3.581326 -6.440757 -1.913753 5.844641 -7.558227 -2.120000 2.576500 -5.717600 10.293097 -2.337590 -0.050896 -43.990258 -59.891329 29.347729 61.989733 -50.284488 -40.495122 -0.716462 -3.071297 -55.985593 33.783312 10.866457 8.680600 -7.125000 0.000000 0.000000 8.859900 44.413500 -0.129300 -14.637268 3.929241 4.498558 86.332591 4.594350 54.160736 -119.111106 53.473686 -85.293869 0.695399 -1.050762 20.041301 -34.352069 -8.448541 5.255100 7.125000 0.000000 0.000000 -7.434100 -38.980500 -1.109700 
31.594663 17.370891 -31.822480 -3.450830 -49.808577 18.385265 -3.881660 -5.972509 -4.890107 -13.932278 8.998900 -51.494168 6.341980 15.377686 45.833226 -3.831811 11.729203 6.757507 0.055500 -1.519600 -4.179700 5.209195 5.234162 -4.070054 7.239832 10.660544 -41.681690 -7.399621 -16.689539 50.793105 2.924939 -9.957914 -4.343248 -0.382200 3.970100 -10.992500 5.437266 -3.676035 43.899827 1.217678 -4.787530 -1.368455 -9.039401 -2.293818 2.000951 4.657377 3.574826 -6.412082 -1.899724 5.837334 -7.576141 -2.116200 2.571600 -5.736400 10.294901 -2.351874 -0.052743 -43.450771 -59.825584 28.996956 62.117061 -50.342556 -40.602184 -0.892784 -2.939476 -56.168502 36.185771 8.606452 7.531800 -7.125000 0.000000 0.000000 10.917900 41.714400 -0.896700 -14.632773 3.934610 4.502036 86.296011 4.581568 54.116456 -119.138912 53.468099 -85.330671 0.701851 -1.047520 20.018499 -34.444222 -8.577486 5.365800 7.125000 0.000000 0.000000 -7.525100 -39.147600 -1.092300 
31.592475 17.375703 -31.819855 -3.484499 -49.815862 18.360910 -3.898818 -5.968648 -4.881458 -13.883506 8.980087 -51.405005 6.344078 15.379209 45.836847 -3.845057 11.754093 6.706367 0.056100 -1.528500 -4.204200 5.221286 5.228973 -4.064413 7.277144 10.601713 -41.615230 -7.390054 -16.677185 50.767520 2.914183 -9.929396 -4.310474 -0.387300 3.996300 -11.066300 5.457353 -3.677479 43.949774 1.222341 -4.776833 -1.364354 -9.017494 -2.290658 2.004905 4.617723 3.569082 -6.436457 -1.896889 5.825220 -7.577605 -2.106400 2.568800 -5.730300 10.300344 -2.349464 -0.069668 -43.805660 -59.924191 29.156741 62.032240 -50.278640 -40.504877 -0.906911 -2.921544 -55.947320 36.172516 8.581912 7.498100 -7.125000 0.000000 0.000000 10.892800 41.668200 -0.907200 -14.628422 3.933781 4.505969 86.207288 4.586750 54.064301 -119.128144 53.475357 -85.337216 0.700793 -1.043508 19.981450 -34.467430 -8.584027 5.376600 7.125000 0.000000 0.000000 -7.543400 -39.161200 -1.092500 
31.588429 17.373515 -31.821715 -3.565096 -49.846471 18.383722 -3.885700 -5.960961 -4.880855 -13.842625 9.050587 -51.393418 6.354335 15.381900 45.855317 -3.833679 11.730583 6.714978 0.058200 -1.557300 -4.283600 5.234123 5.222302 -4.057223 7.346666 10.610037 -41.591191 -7.391071 -16.675777 50.784916 2.900105 -9.897700 -4.324319 -0.385900 3.989000 -11.045700 5.484166 -3.663469 44.015147 1.215447 -4.757968 -1.366703 -9.053406 -2.279372 1.967994 4.624648 3.570294 -6.398950 -1.883976 5.833289 -7.602766 -2.097300 2.573000 -5.750500 10.292134 -2.353524 -0.058422 -43.621292 -59.874176 29.278689 62.141694 -50.338268 -40.586900 -0.896752 -2.933964 -56.074493 36.185519 8.658346 7.569200 -7.125000 0.000000 0.000000 10.918600 41.775100 -0.880200 -14.629077 3.938827 4.504959 86.189249 4.556839 54.039197 -119.125818 53.474521 -85.333596 0.693584 -1.047026 20.022666 -34.438539 -8.453979 5.276400 7.125000 0.000000 0.000000 -7.507200 -38.996600 -1.117700 
31.586460 17.369797 -31.826527 -3.526392 -49.807600 18.370613 -3.876818 -5.963358 -4.883345 -13.856365 9.028224 -51.432209 6.360740 15.387860 45.883863 -3.815593 11.692261 6.731460 0.057500 -1.547100 -4.255700 5.222642 5.222554 -4.058024 7.350319 10.573559 -41.641816 -7.398905 -16.683228 50.807286 2.896894 -9.889996 -4.316189 -0.386600 3.992700 -11.056200 5.487538 -3.678324 44.011808 1.211847 -4.781716 -1.372300 -9.084848 -2.286737 1.942046 4.644024 3.568588 -6.383130 -1.881867 5.832389 -7.594632 -2.098500 2.572100 -5.746900 10.293266 -2.358349 -0.065663 -43.624848 -59.888113 29.174853 62.081892 -50.312730 -40.549746 -0.877775 -2.952631 -56.062554 35.937233 8.922205 7.727700 -7.125000 0.000000 0.000000 10.722100 42.101500 -0.776500 -14.637416 3.947326 4.502475 86.257254 4.582104 54.020069 -119.046435 53.494736 -85.259477 0.690813 -1.050369 20.009391 -34.366543 -8.359123 5.193900 7.125000 0.000000 0.000000 -7.438300 -38.872200 -1.130200 
31.583726 17.368266 -31.829808 -3.539273 -49.799326 18.368256 -3.868846 -5.960339 -4.883242 -13.841187 9.038398 -51.437503 6.370613 15.394448 45.914704 -3.803119 11.664983 6.728382 0.057900 -1.552300 -4.269800 5.220823 5.219491 -4.055461 7.384919 10.550007 -41.654650 -7.406952 -16.688097 50.838138 2.885326 -9.864571 -4.326151 -0.386400 3.991500 -11.052900 5.495427 -3.678245 44.037426 1.209004 -4.782391 -1.374292 -9.102562 -2.285434 1.922939 4.643957 3.565506 -6.371251 -1.872805 5.829849 -7.596572 -2.091800 2.571800 -5.749400 10.292414 -2.360895 -0.068889 -43.639769 -59.899694 29.193000 62.074269 -50.306241 -40.538374 -0.883674 -2.947818 -56.051493 36.005317 8.861853 7.694100 -7.125000 0.000000 0.000000 10.777700 42.027000 -0.800700 -14.640773 3.951792 4.501897 86.265718 4.587728 53.994024 -119.018310 53.501466 -85.237518 0.690510 -1.051178 20.002855 -34.360725 -8.340988 5.179500 7.125000 0.000000 0.000000 -7.432100 -38.848800 -1.133600 
31.581101 17.366297 -31.833308 -3.547861 -49.791045 18.365741 -3.861761 -5.955384 -4.883201 -13.826852 9.045285 -51.445748 6.378952 15.401560 45.941579 -3.790758 11.638529 6.729888 0.058200 -1.556800 -4.282400 5.215975 5.219585 -4.055008 7.419369 10.524353 -41.672654 -7.417518 -16.693823 50.876263 2.873627 -9.839014 -4.340493 -0.386700 3.993100 -11.057100 5.478452 -3.666562 44.053672 1.211799 -4.764080 -1.374224 -9.071612 -2.282064 1.913918 4.618411 3.558985 -6.356668 -1.869657 5.820504 -7.598111 -2.087600 2.569100 -5.754600 10.297015 -2.363407 -0.075786 -43.732247 -59.927602 29.271797 62.060510 -50.291785 -40.515359 -0.883319 -2.948372 -56.037953 35.956255 8.913450 7.720900 -7.125000 0.000000 0.000000 10.737300 42.085000 -0.782100 -14.638799 3.952677 4.503826 86.240342 4.597063 53.950672 -118.982379 53.514956 -85.215604 0.689771 -1.049452 19.992966 -34.362572 -8.336696 5.177700 7.125000 0.000000 0.000000 -7.432300 -38.845600 -1.134200 
31.578585 17.364000 -31.837683 -3.550003 -49.776777 18.363449 -3.853143 -5.951558 -4.883877 -13.816659 9.050646 -51.461774 6.386842 15.407950 45.967531 -3.777109 11.609734 6.737504 0.058400 -1.559700 -4.290300 5.210059 5.219713 -4.054613 7.451788 10.496704 -41.699242 -7.427626 -16.699942 50.912178 2.864283 -9.818651 -4.351655 -0.386900 3.994300 -11.060500 5.464290 -3.658189 44.068281 1.212812 -4.752242 -1.375747 -9.054453 -2.279845 1.899755 4.600930 3.551386 -6.343570 -1.862341 5.810034 -7.595988 -2.081300 2.565700 -5.757100 10.300138 -2.366053 -0.081530 -43.806899 -59.947830 29.346977 62.043097 -50.278403 -40.489083 -0.882255 -2.949466 -56.034446 35.902572 8.959742 7.742800 -7.125000 0.000000 0.000000 10.692400 42.136500 -0.765000 -14.639331 3.954742 4.504329 86.235636 4.606381 53.915113 -118.946892 53.526234 -85.192163 0.690746 -1.048536 19.986110 -34.377369 -8.354186 5.193400 7.125000 0.000000 0.000000 -7.446500 -38.869000 -1.132100 
31.576070 17.361813 -31.842167 -3.543497 -49.762425 18.356171 -3.845678 -5.947785 -4.884119 -13.810293 9.052526 -51.477650 6.393962 15.414342 45.992159 -3.764822 11.583446 6.742588 0.058500 -1.561100 -4.294100 5.202665 5.220421 -4.054784 7.479569 10.466374 -41.728355 -7.438961 -16.706903 50.950807 2.854039 -9.796297 -4.363179 -0.387200 3.996000 -11.065400 5.441826 -3.646711 44.079134 1.214341 -4.737405 -1.376968 -9.031063 -2.277089 1.888542 4.582323 3.541645 -6.333537 -1.854845 5.795783 -7.590960 -2.075300 2.560600 -5.757700 10.304398 -2.368080 -0.088131 -43.909155 -59.973258 29.438304 62.018537 -50.260310 -40.454148 -0.882564 -2.948972 -56.021989 35.848894 8.996661 7.755900 -7.125000 0.000000 0.000000 10.645700 42.174400 -0.751500 -14.639598 3.956053 4.504842 86.233122 4.618562 53.877469 -118.907243 53.538989 -85.166171 0.692375 -1.047387 19.978404 -34.401741 -8.382988 5.219100 7.125000 0.000000 0.000000 -7.470200 -38.907100 -1.128700 
31.573554 17.359625 -31.846979 -3.537845 -49.750915 18.348990 -3.837688 -5.943415 -4.884121 -13.804453 9.059103 -51.494189 6.400855 15.420389 46.016048 -3.751056 11.554302 6.748962 0.058500 -1.560800 -4.293300 5.195453 5.221243 -4.054886 7.508086 10.439464 -41.757500 -7.451083 -16.714414 50.992583 2.843723 -9.773980 -4.377907 -0.387600 3.998100 -11.071400 5.414444 -3.631561 44.091793 1.215677 -4.718943 -1.378379 -9.004405 -2.273333 1.876248 4.562852 3.529945 -6.323912 -1.845537 5.778621 -7.585627 -2.068100 2.554100 -5.758200 10.308411 -2.371123 -0.094053 -43.971901 -59.989589 29.521038 61.997706 -50.247592 -40.422411 -0.883244 -2.949149 -56.038121 35.813692 9.015444 7.759300 -7.125000 0.000000 0.000000 10.615500 42.190700 -0.745000 -14.639585 3.957634 4.505123 86.231120 4.629754 53.839284 -118.869329 53.551516 -85.141321 0.693236 -1.046453 19.971456 -34.420851 -8.396104 5.232600 7.125000 0.000000 0.000000 -7.487900 -38.925600 -1.128000 
31.571039 17.357547 -31.851791 -3.519909 -49.735322 18.334876 -3.830957 -5.940024 -4.883605 -13.805080 9.060337 -51.511801 6.406870 15.425942 46.038932 -3.738088 11.526720 6.754004 0.058600 -1.561600 -4.295400 5.186919 5.221951 -4.054970 7.529184 10.408486 -41.789661 -7.463663 -16.722601 51.034273 2.833353 -9.751861 -4.392262 -0.388100 4.000600 -11.078400 5.385647 -3.618662 44.101879 1.216187 -4.705129 -1.380767 -8.983288 -2.270876 1.861065 4.548117 3.517779 -6.314777 -1.834067 5.760896 -7.578171 -2.060200 2.547200 -5.757200 10.311558 -2.374392 -0.099229 -44.016354 -59.999289 29.600982 61.975299 -50.236630 -40.389048 -0.884170 -2.949526 -56.060423 35.786683 9.026698 7.759100 -7.125000 0.000000 0.000000 10.592600 42.198500 -0.741200 -14.640568 3.959864 4.504720 86.237215 4.638505 53.804528 -118.831804 53.563344 -85.114910 0.693740 -1.046015 19.965368 -34.430811 -8.398633 5.236600 7.125000 0.000000 0.000000 -7.497000 -38.930000 -1.128500 
31.568633 17.355251 -31.856932 -3.500880 -49.716626 18.321681 -3.822945 -5.937256 -4.883436 -13.808246 9.062998 -51.533951 6.413317 15.431408 46.063152 -3.723535 11.495621 6.762207 0.058800 -1.564900 -4.304700 5.178278 5.222083 -4.054647 7.549174 10.380954 -41.825339 -7.476964 -16.731645 51.078105 2.824368 -9.733034 -4.410388 -0.388600 4.003000 -11.085000 5.361683 -3.607958 44.112704 1.214909 -4.695670 -1.384257 -8.975922 -2.268905 1.841684 4.546558 3.505879 -6.306739 -1.820637 5.743929 -7.569647 -2.052900 2.539800 -5.754600 10.313339 -2.378954 -0.103044 -43.991967 -59.994542 29.638491 61.956798 -50.232929 -40.363451 -0.884447 -2.951391 -56.109260 35.777948 9.020727 7.751100 -7.125000 0.000000 0.000000 10.586100 42.187700 -0.743600 -14.642925 3.963824 4.503204 86.259581 4.646141 53.775334 -118.791609 53.574680 -85.083108 0.693748 -1.046582 19.956873 -34.425414 -8.381473 5.223100 7.125000 0.000000 0.000000 -7.491500 -38.908100 -1.131800 
